# xmcd
#
# Track frame offsets:
#   150
#   17544
#   31115
#   48446
#   62691
#   76979
#   98689
#   118234
#   137643
#   149561
#   165151
#   180435
#   195338
#   210542
#   226860
#   242488
#   256444
#   277998
#   295058
#   311291
#
# Disc length: 4382 seconds
#
# Revision: 1
# Processed by: cddbd v1.5PL3 Copyright (c) Steve Scherf et al.
# Submitted via: Media_Universe 3.0
#
DISCID=01111c14
DTITLE=Kenny Rogers - Endless Love: A Collection
DYEAR=1997
DGENRE=Country Compilation
TTITLE0=I Swear
TTITLE1=I Will Always Love You
TTITLE2=Lady
TTITLE3=You Are So Beautiful
TTITLE4=You Light Up My Life
TTITLE5=Have I Told You Lately That I Love You
TTITLE6=She Believes In Me
TTITLE7=I Only Have Eyes For You
TTITLE8=Always
TTITLE9=When I Fall In Love
TTITLE10=Unforgetable
TTITLE11=Crazy
TTITLE12=Can't Help Falling In Love
TTITLE13=The Wind Beneath My Wings
TTITLE14=Unchained Melody
TTITLE15=You Send Me
TTITLE16=Always and Forever
TTITLE17=When A Man Loves A Woman
TTITLE18=Evergreen
TTITLE19=Endless Love
EXTD=Music Club MCCD-410. Made in England.
EXTT0=
EXTT1=
EXTT2=
EXTT3=
EXTT4=
EXTT5=
EXTT6=
EXTT7=
EXTT8=
EXTT9=
EXTT10=
EXTT11=
EXTT12=
EXTT13=
EXTT14=
EXTT15=
EXTT16=
EXTT17=
EXTT18=
EXTT19=
PLAYORDER=
